<?xml version="1.0" standalone="no"?>
<!DOCTYPE svg PUBLIC "-//W3C//DTD SVG 1.1//EN" "http://www.w3.org/Graphics/SVG/1.1/DTD/svg11.dtd">
<svg width="100%" height="100%" viewBox="0 0 3016 313" version="1.1" xmlns="http://www.w3.org/2000/svg" xmlns:xlink="http://www.w3.org/1999/xlink" xml:space="preserve" style="fill-rule:evenodd;clip-rule:evenodd;stroke-linejoin:round;stroke-miterlimit:1.41421;">
    <g transform="matrix(3.125,0,0,3.125,-0,-0)">
        <g transform="matrix(2.67577,1.3708e-31,1.32796e-31,2.67577,-1073.05,-1392.89)">
            <path d="M435.025,552.028L440.775,552.028C443.692,544.964 446.608,537.9 449.525,530.835C452.442,537.913 455.358,544.992 458.275,552.07L463.858,552.07C460.196,543.547 456.312,534.93 452.192,526.231C451.307,524.362 450.418,522.505 449.525,520.658C448.575,522.651 447.627,524.651 446.681,526.658C442.674,535.163 438.79,543.621 435.025,552.028" style="fill:white;fill-rule:nonzero;"/>
            <path d="M446.763,541.815L452.232,541.815C452.713,543.036 453.194,544.258 453.674,545.482L445.263,545.44C445.763,544.232 446.263,543.022 446.763,541.815" style="fill:white;fill-rule:nonzero;"/>
            <path d="M472.942,552.028C472.95,547.643 472.958,543.259 472.966,538.874L475.724,538.874C476.291,538.874 476.716,538.951 476.998,539.105C477.47,539.363 477.71,539.755 477.783,539.87C478.299,540.689 481.712,545.466 486.442,552.07L491.9,552.07C489.91,549.329 487.896,546.579 485.859,543.82C484.413,541.862 482.969,539.918 481.525,537.986C482.35,537.759 483.373,537.37 484.424,536.688C484.868,536.401 485.796,535.789 486.641,534.736C487.243,533.985 487.703,533.151 488.022,532.231C488.338,531.311 488.498,530.322 488.498,529.262C488.498,527.959 488.275,526.778 487.83,525.718C487.384,524.657 486.695,523.748 485.762,522.991C484.827,522.234 483.636,521.652 482.186,521.24C480.735,520.831 479.006,520.627 476.998,520.627L470.565,520.627L474.329,524.39L476.998,524.509C479.232,524.509 480.902,524.947 482.006,525.825C483.109,526.7 483.661,527.974 483.661,529.643C483.661,530.478 483.519,531.238 483.237,531.925C482.953,532.609 482.529,533.2 481.963,533.696C481.397,534.19 480.689,534.576 479.841,534.852C478.993,535.128 478.003,535.266 476.872,535.266L472.966,535.266C472.966,535.266 472.966,526.557 472.966,525.404L468.187,520.627L468.001,520.627L468.001,546.243L472.942,552.028Z" style="fill:white;fill-rule:nonzero;"/>
            <path d="M534.602,545.163C535.761,544.023 536.919,542.879 538.075,541.734C537.926,541.404 537.787,541.061 537.665,540.703C537.187,539.317 536.951,537.751 536.951,536.002C536.951,534.268 537.187,532.709 537.665,531.323C538.139,529.937 538.817,528.763 539.699,527.798C540.581,526.832 541.643,526.092 542.889,525.573C544.134,525.056 545.525,524.797 547.063,524.797C548.618,524.797 550.016,525.056 551.261,525.573C551.968,525.867 552.609,526.242 553.195,526.681C554.255,525.623 555.315,524.564 556.376,523.509C555.43,522.798 554.395,522.19 553.244,521.713C551.389,520.944 549.329,520.559 547.063,520.559C544.811,520.559 542.759,520.944 540.907,521.713C539.053,522.482 537.461,523.552 536.132,524.924C534.803,526.295 533.774,527.923 533.048,529.812C532.32,531.701 531.957,533.765 531.957,536.002C531.957,538.241 532.32,540.304 533.048,542.192C533.463,543.271 533.989,544.256 534.602,545.163" style="fill:white;fill-rule:nonzero;"/>
            <path d="M558.631,525.617C558.569,525.552 558.499,525.498 558.435,525.434C557.357,526.509 556.279,527.584 555.202,528.659C556.007,529.594 556.636,530.708 557.079,532.016C557.547,533.402 557.782,534.962 557.782,536.695C557.782,538.444 557.547,540.01 557.079,541.396C556.61,542.781 555.94,543.952 555.065,544.909C554.191,545.869 553.131,546.603 551.886,547.113C550.641,547.626 549.243,547.88 547.689,547.88C546.151,547.88 544.759,547.626 543.514,547.113C542.268,546.603 541.206,545.869 540.324,544.909C540.094,544.659 539.88,544.392 539.676,544.114C538.584,545.194 537.492,546.275 536.396,547.352C536.519,547.489 536.63,547.634 536.757,547.764C538.087,549.128 539.678,550.195 541.532,550.965C543.384,551.733 545.436,552.119 547.689,552.119C549.954,552.119 552.014,551.733 553.869,550.965C555.722,550.195 557.31,549.128 558.631,547.764C559.953,546.4 560.978,544.774 561.707,542.885C562.432,540.997 562.798,538.934 562.798,536.695C562.798,534.458 562.432,532.394 561.707,530.506C560.978,528.616 559.953,526.988 558.631,525.617" style="fill:white;fill-rule:nonzero;"/>
            <path d="M569.883,545.163C571.044,544.022 572.201,542.879 573.358,541.733C573.208,541.403 573.069,541.062 572.947,540.702C572.47,539.318 572.233,537.751 572.233,536.002C572.233,534.268 572.47,532.708 572.947,531.323C573.421,529.938 574.1,528.763 574.982,527.798C575.862,526.833 576.925,526.092 578.171,525.573C579.417,525.056 580.808,524.798 582.345,524.798C583.9,524.798 585.298,525.056 586.543,525.573C587.25,525.868 587.891,526.242 588.477,526.68C589.537,525.622 590.598,524.564 591.658,523.508C590.712,522.799 589.677,522.19 588.526,521.713C586.671,520.945 584.611,520.559 582.345,520.559C580.093,520.559 578.041,520.945 576.188,521.713C574.335,522.482 572.743,523.552 571.415,524.923C570.086,526.295 569.055,527.924 568.329,529.813C567.602,531.702 567.238,533.764 567.238,536.002C567.238,538.24 567.602,540.305 568.329,542.192C568.745,543.272 569.271,544.256 569.883,545.163" style="fill:white;fill-rule:nonzero;"/>
            <path d="M593.787,525.617C593.726,525.553 593.655,525.498 593.592,525.434C592.514,526.509 591.435,527.586 590.359,528.661C591.164,529.595 591.793,530.708 592.235,532.017C592.704,533.402 592.938,534.963 592.938,536.696C592.938,538.445 592.704,540.013 592.235,541.396C591.766,542.781 591.097,543.952 590.222,544.911C589.348,545.869 588.288,546.605 587.042,547.114C585.798,547.627 584.399,547.881 582.845,547.881C581.307,547.881 579.916,547.627 578.671,547.114C577.425,546.605 576.362,545.869 575.481,544.911C575.25,544.661 575.036,544.394 574.833,544.114C573.741,545.196 572.648,546.275 571.554,547.354C571.674,547.489 571.786,547.635 571.915,547.766C573.243,549.129 574.834,550.196 576.688,550.965C578.54,551.733 580.593,552.119 582.845,552.119C585.111,552.119 587.171,551.733 589.025,550.965C590.879,550.196 592.467,549.129 593.787,547.766C595.11,546.401 596.135,544.774 596.863,542.887C597.589,541 597.954,538.934 597.954,536.696C597.954,534.459 597.589,532.396 596.863,530.508C596.135,528.618 595.11,526.989 593.787,525.617" style="fill:white;fill-rule:nonzero;"/>
            <path d="M601.802,550.663C603.478,548.992 605.166,547.334 606.864,545.686C606.87,539.717 606.875,533.748 606.88,527.778C605.192,526.195 603.505,524.612 601.817,523.028C601.812,532.24 601.807,541.451 601.802,550.663" style="fill:white;fill-rule:nonzero;"/>
            <path d="M627.917,530.441C627.168,528.538 626.117,526.906 624.758,525.54C623.048,523.821 621.335,523.029 619.867,522.362C618.47,521.727 616.286,520.924 613.442,520.612C609.657,520.619 605.873,520.625 602.088,520.632C603.692,522.125 605.296,523.619 606.9,525.112C607.916,525.114 608.937,525.114 609.963,525.112C611.122,525.108 612.275,525.101 613.421,525.091C614.437,525.147 616.105,525.345 617.831,526.089C618.373,526.322 619.279,526.721 620.258,527.541C620.554,527.788 620.833,528.054 621.096,528.34C621.992,529.318 622.683,530.516 623.165,531.938C623.646,533.361 623.889,534.963 623.889,536.744C623.889,538.539 623.646,540.145 623.165,541.559C622.683,542.975 621.992,544.173 621.096,545.157C620.198,546.143 619.11,546.893 617.831,547.41C616.552,547.926 615.115,548.186 613.521,548.186L607.249,548.186C606.571,548.861 605.885,549.538 605.19,550.217C604.536,550.856 603.884,551.487 603.234,552.112C607.27,552.192 610.721,552.147 613.442,552.07C616.332,551.988 617.914,551.882 619.867,551.127C622.484,550.115 624.143,548.566 624.758,547.949C626.117,546.584 627.168,544.952 627.917,543.047C628.664,541.144 629.036,539.042 629.036,536.744C629.036,534.446 628.664,532.345 627.917,530.441" style="fill:white;fill-rule:nonzero;"/>
            <path d="M645.817,533.007C645.021,532.671 644.529,532.463 643.963,532.07C643.486,531.738 643.041,531.43 642.656,530.845C642.122,530.034 642.044,529.226 642.044,528.916C642.044,528.312 642.153,527.754 642.371,527.241C642.587,526.729 642.915,526.282 643.35,525.902C643.787,525.523 644.324,525.229 644.963,525.019C645.601,524.807 646.344,524.7 647.186,524.7C648.098,524.7 648.885,524.817 649.547,525.049C650.475,525.373 651.126,525.724 651.263,525.808C651.969,526.242 652.47,526.726 652.796,527.09C653.291,526.515 653.791,525.939 654.296,525.361C654.748,524.843 655.2,524.33 655.65,523.819C655.19,523.363 654.498,522.761 653.554,522.215C653.364,522.104 652.782,521.774 651.937,521.456C650.483,520.909 648.885,520.635 647.143,520.635C645.598,520.635 644.223,520.873 643.014,521.35C641.806,521.828 640.79,522.465 639.969,523.257C639.146,524.053 638.522,524.961 638.094,525.988C637.847,526.577 637.672,527.178 637.567,527.79C637.526,528.029 637.451,528.533 637.451,529.168C637.451,529.692 637.465,531.014 638.15,532.528C638.723,533.791 639.485,534.576 639.734,534.819C640.405,535.479 641.002,535.808 642.004,536.361C643.165,537.002 644.114,537.32 644.572,537.46C644.683,537.494 644.775,537.52 644.838,537.538C645.4,536.936 645.962,536.332 646.525,535.726C647.097,535.111 647.666,534.496 648.234,533.882C648.109,533.841 647.984,533.799 647.859,533.757C647.613,533.674 647.37,533.591 647.129,533.507C646.807,533.397 646.352,533.233 645.817,533.007" style="fill:white;fill-rule:nonzero;"/>
            <path d="M655.484,539.403C655.3,539.033 654.868,538.238 654.088,537.424C653.446,536.753 652.838,536.352 652.317,536.007C651.718,535.61 651.181,535.327 650.776,535.132C650.267,535.678 649.756,536.23 649.244,536.788C648.631,537.458 648.027,538.124 647.432,538.788C647.764,538.955 648.266,539.207 648.887,539.512C649.37,539.75 649.386,539.756 649.473,539.803C650.141,540.169 650.679,540.622 651.083,541.162C651.492,541.702 651.697,542.403 651.697,543.259C651.697,544.789 651.207,545.991 650.231,546.863C649.256,547.734 647.874,548.169 646.091,548.169C644.994,548.169 644.055,548.018 643.266,547.716C642.48,547.413 641.81,547.084 641.255,546.725C640.701,546.366 640.225,546.036 639.832,545.735C639.776,545.692 639.724,545.673 639.67,545.637C639.18,546.103 638.684,546.591 638.182,547.101C637.647,547.645 637.138,548.183 636.654,548.712C637.113,549.142 637.602,549.551 638.147,549.918C639.201,550.629 640.368,551.121 640.496,551.173C640.778,551.288 641.772,551.683 643.151,551.945C644.576,552.215 645.723,552.212 646.276,552.195C647.075,552.17 648.269,552.124 649.734,551.653C650.456,551.421 652.165,550.852 653.604,549.421C654.07,548.957 654.407,548.504 654.515,548.355C654.961,547.74 655.329,547.067 655.615,546.336C655.901,545.608 656.409,544.299 656.311,542.542C656.266,541.747 656.085,540.609 655.484,539.403" style="fill:white;fill-rule:nonzero;"/>
            <path d="M634.462,522.936L634.462,520.635L631.412,520.635L631.412,531.505L634.554,528.62L634.462,522.936Z" style="fill:white;fill-rule:nonzero;"/>
            <path d="M695.682,520.632C688.534,520.611 681.386,520.59 674.239,520.57C675.77,522.122 677.307,523.67 678.847,525.212L690.755,525.212C692.398,523.685 694.04,522.159 695.682,520.632" style="fill:white;fill-rule:nonzero;"/>
            <path d="M677.588,527.851L677.588,526.851L677.588,526.476C676.813,525.726 676.031,524.955 675.244,524.163C674.441,523.356 673.66,522.553 672.901,521.757L672.901,552.236C674.473,554.15 676.046,556.063 677.619,557.976C677.597,536.961 677.588,528.276 677.588,527.851" style="fill:white;fill-rule:nonzero;"/>
            <path d="M679.421,534.123C679.449,535.665 679.477,537.206 679.504,538.748C681.572,538.751 683.64,538.753 685.707,538.756C687.174,537.236 688.641,535.715 690.109,534.195C686.546,534.171 682.984,534.147 679.421,534.123" style="fill:white;fill-rule:nonzero;"/>
            <path d="M745.622,523.209C745.233,522.732 744.745,522.135 744.093,521.362C743.815,521.033 743.584,520.762 743.428,520.58C743.428,530.633 743.428,540.687 743.428,550.74L748.474,545.693L748.474,526.725C748.031,526.175 746.847,524.71 745.622,523.209" style="fill:white;fill-rule:nonzero;"/>
            <path d="M757.435,548.033L748.887,548.033L744.663,552.258C750.331,552.257 756.001,552.257 761.67,552.257C761.57,552.16 761.469,552.063 761.368,551.966C760.057,550.655 758.747,549.344 757.435,548.033" style="fill:white;fill-rule:nonzero;"/>
            <path d="M408.633,532.546L408.633,526.261C410.986,528.286 413.339,530.311 415.692,532.335C417.928,530.329 420.164,528.322 422.4,526.315C422.379,528.377 422.358,530.44 422.338,532.502C420.136,534.683 417.935,536.863 415.733,539.044C413.367,536.878 411,534.712 408.633,532.546" style="fill:white;fill-rule:nonzero;"/>
            <path d="M424.734,557.861C424.713,555.881 424.694,553.9 424.676,551.918C424.595,542.872 424.545,533.858 424.526,524.877C426.297,523.502 428.067,522.127 429.838,520.752C429.859,531.177 429.88,541.602 429.901,552.028C428.99,553.012 428.073,554.026 427.151,555.069C426.322,556.007 425.516,556.938 424.734,557.861" style="fill:white;fill-rule:nonzero;"/>
            <path d="M406.15,557.861C406.172,556.029 406.194,554.198 406.216,552.366L406.342,524.797L401.026,520.63C401.026,531.096 401.025,541.562 401.025,552.028C402.021,553.13 403.021,554.255 404.025,555.403C404.745,556.225 405.453,557.045 406.15,557.861" style="fill:white;fill-rule:nonzero;"/>
            <path d="M689.904,552.257L695.652,552.257C698.568,544.986 701.484,537.715 704.4,530.445C707.375,537.715 710.351,544.986 713.326,552.257L718.938,552.257C715.518,543.919 711.729,535.397 707.525,526.736C706.516,524.657 705.499,522.603 704.475,520.574C703.473,522.612 702.476,524.666 701.483,526.736C697.357,535.348 693.504,543.861 689.904,552.257" style="fill:white;fill-rule:nonzero;"/>
            <path d="M701.546,541.778C703.504,541.771 705.463,541.764 707.421,541.757L708.754,545.403C705.9,545.41 703.046,545.417 700.192,545.424C700.643,544.209 701.095,542.993 701.546,541.778" style="fill:white;fill-rule:nonzero;"/>
            <path d="M723.352,520.945C723.346,520.937 723.234,520.795 723.081,520.604C723.076,520.597 723.063,520.581 723.058,520.574C723.054,530.63 723.05,540.685 723.046,550.741L728.092,545.694L728.092,526.725C724.713,522.61 723.439,521.056 723.352,520.945" style="fill:white;fill-rule:nonzero;"/>
            <path d="M737.053,548.033L728.505,548.033L724.281,552.258C729.948,552.261 735.615,552.265 741.282,552.269C741.183,552.168 741.084,552.067 740.986,551.966C739.675,550.655 738.364,549.344 737.053,548.033" style="fill:white;fill-rule:nonzero;"/>
            <path d="M518.525,545.685C518.525,547.84 518.525,549.996 518.525,552.151C516.255,550.033 513.984,547.915 511.713,545.797C509.428,547.846 507.144,549.894 504.859,551.943C504.846,549.827 504.833,547.712 504.821,545.597C507.118,543.361 509.416,541.126 511.713,538.891C513.984,541.156 516.254,543.42 518.525,545.685" style="fill:white;fill-rule:nonzero;"/>
            <path d="M502.671,526.127C502.671,526.176 502.67,527.07 502.67,527.119C502.661,537.386 502.669,547.648 502.692,557.903C500.914,555.958 499.136,554.014 497.359,552.07C497.4,541.597 497.442,531.125 497.484,520.653C498.357,521.582 499.236,522.513 500.119,523.445C500.971,524.343 501.821,525.237 502.671,526.127" style="fill:white;fill-rule:nonzero;"/>
            <path d="M521.088,526.195C521.06,530.059 521.039,533.934 521.026,537.82C521.003,544.562 521.003,551.271 521.026,557.945C522.692,556.001 524.359,554.056 526.025,552.112C526.109,541.619 526.192,531.126 526.275,520.633C525.34,521.624 524.402,522.624 523.463,523.632C522.666,524.488 521.874,525.342 521.088,526.195" style="fill:white;fill-rule:nonzero;"/>
        </g>
    </g>
</svg>
